<svg id="visual" viewBox="0 0 900 600" width="900" height="600" xmlns="http://www.w3.org/2000/svg" xmlns:xlink="http://www.w3.org/1999/xlink" version="1.1"><rect x="0" y="0" width="900" height="600" fill="#19161C"></rect><path d="M0 289L16.7 306.2C33.3 323.3 66.7 357.7 100 357.3C133.3 357 166.7 322 200 322.2C233.3 322.3 266.7 357.7 300 377.2C333.3 396.7 366.7 400.3 400 387.7C433.3 375 466.7 346 500 339.5C533.3 333 566.7 349 600 345.2C633.3 341.3 666.7 317.7 700 319.5C733.3 321.3 766.7 348.7 800 364.5C833.3 380.3 866.7 384.7 883.3 386.8L900 389L900 601L883.3 601C866.7 601 833.3 601 800 601C766.7 601 733.3 601 700 601C666.7 601 633.3 601 600 601C566.7 601 533.3 601 500 601C466.7 601 433.3 601 400 601C366.7 601 333.3 601 300 601C266.7 601 233.3 601 200 601C166.7 601 133.3 601 100 601C66.7 601 33.3 601 16.7 601L0 601Z" fill="#9945ff"></path><path d="M0 378L16.7 373.3C33.3 368.7 66.7 359.3 100 369.7C133.3 380 166.7 410 200 423.3C233.3 436.7 266.7 433.3 300 434.2C333.3 435 366.7 440 400 430.7C433.3 421.3 466.7 397.7 500 389.5C533.3 381.3 566.7 388.7 600 399.7C633.3 410.7 666.7 425.3 700 429C733.3 432.7 766.7 425.3 800 416C833.3 406.7 866.7 395.3 883.3 389.7L900 384L900 601L883.3 601C866.7 601 833.3 601 800 601C766.7 601 733.3 601 700 601C666.7 601 633.3 601 600 601C566.7 601 533.3 601 500 601C466.7 601 433.3 601 400 601C366.7 601 333.3 601 300 601C266.7 601 233.3 601 200 601C166.7 601 133.3 601 100 601C66.7 601 33.3 601 16.7 601L0 601Z" fill="#009bff"></path><path d="M0 472L16.7 464.5C33.3 457 66.7 442 100 437.3C133.3 432.7 166.7 438.3 200 441.2C233.3 444 266.7 444 300 447C333.3 450 366.7 456 400 461.2C433.3 466.3 466.7 470.7 500 475.2C533.3 479.7 566.7 484.3 600 480.5C633.3 476.7 666.7 464.3 700 453.5C733.3 442.7 766.7 433.3 800 424.3C833.3 415.3 866.7 406.7 883.3 402.3L900 398L900 601L883.3 601C866.7 601 833.3 601 800 601C766.7 601 733.3 601 700 601C666.7 601 633.3 601 600 601C566.7 601 533.3 601 500 601C466.7 601 433.3 601 400 601C366.7 601 333.3 601 300 601C266.7 601 233.3 601 200 601C166.7 601 133.3 601 100 601C66.7 601 33.3 601 16.7 601L0 601Z" fill="#00c8ff"></path><path d="M0 461L16.7 466C33.3 471 66.7 481 100 489.3C133.3 497.7 166.7 504.3 200 511.2C233.3 518 266.7 525 300 522.7C333.3 520.3 366.7 508.7 400 501.3C433.3 494 466.7 491 500 486.2C533.3 481.3 566.7 474.7 600 481.3C633.3 488 666.7 508 700 505.5C733.3 503 766.7 478 800 476.3C833.3 474.7 866.7 496.3 883.3 507.2L900 518L900 601L883.3 601C866.7 601 833.3 601 800 601C766.7 601 733.3 601 700 601C666.7 601 633.3 601 600 601C566.7 601 533.3 601 500 601C466.7 601 433.3 601 400 601C366.7 601 333.3 601 300 601C266.7 601 233.3 601 200 601C166.7 601 133.3 601 100 601C66.7 601 33.3 601 16.7 601L0 601Z" fill="#00e9ee"></path><path d="M0 505L16.7 510C33.3 515 66.7 525 100 534.7C133.3 544.3 166.7 553.7 200 550.3C233.3 547 266.7 531 300 524.3C333.3 517.7 366.7 520.3 400 518.5C433.3 516.7 466.7 510.3 500 514.7C533.3 519 566.7 534 600 544.7C633.3 555.3 666.7 561.7 700 558.5C733.3 555.3 766.7 542.7 800 534.8C833.3 527 866.7 524 883.3 522.5L900 521L900 601L883.3 601C866.7 601 833.3 601 800 601C766.7 601 733.3 601 700 601C666.7 601 633.3 601 600 601C566.7 601 533.3 601 500 601C466.7 601 433.3 601 400 601C366.7 601 333.3 601 300 601C266.7 601 233.3 601 200 601C166.7 601 133.3 601 100 601C66.7 601 33.3 601 16.7 601L0 601Z" fill="#00ffa3"></path></svg>